<?xml version="1.0" encoding="utf-8"?>
<!-- Generator: Adobe Illustrator 23.1.1, SVG Export Plug-In . SVG Version: 6.00 Build 0)  -->
<svg version="1.1" id="Layer_1" xmlns="http://www.w3.org/2000/svg" xmlns:xlink="http://www.w3.org/1999/xlink" x="0px" y="0px"
	 viewBox="0 0 26.8 31.1" style="enable-background:new 0 0 26.8 31.1;" xml:space="preserve">
<style type="text/css">
	.st0{fill:#FFFFFF;}
</style>
<path class="st0" d="M13.3,3.1L3.8,19.9h19L13.3,3.1z M18.3,16.8v-3.4l2.8,5L18.3,16.8z M8.4,13.4v3.4l-2.8,1.6L8.4,13.4z M12.9,10
	v4.2L11.3,15l-1.8-3.1L12.9,10z M10.5,15.6l-1.2,0.6v-2.7L10.5,15.6z M11,16.4l1.1,1.9L9.9,17L11,16.4z M10,10.6l3-5.1V9L10,10.6z
	 M11.7,19.1H6.1l2.8-1.6L11.7,19.1z M11.7,15.9l1.6-0.9l1.6,0.9l-1.6,2.7L11.7,15.9z M13.8,9V5.6l2.9,5.1L13.8,9z M16.8,17l-2.2,1.3
	l1.1-1.9L16.8,17z M17.3,13.5v2.7l-1.2-0.6L17.3,13.5z M17.2,12l-1.8,3.1l-1.6-0.9v-4.2L17.2,12z M15,19.1l2.8-1.6l2.8,1.6H15z"/>
<g>
	<path class="st0" d="M13.4,26.3c-6.6,0-12-5.4-12-12c0-6.6,5.4-12,12-12c6.6,0,12,5.4,12,12C25.4,20.9,20,26.3,13.4,26.3z
		 M13.4,3.3c-6.1,0-11,4.9-11,11s4.9,11,11,11s11-4.9,11-11S19.5,3.3,13.4,3.3z"/>
</g>
<g>
	<path class="st0" d="M23.9,5.3c-1.1,0-2-0.9-2-2s0.9-2,2-2s2,0.9,2,2S25,5.3,23.9,5.3z M23.9,2.3c-0.6,0-1,0.4-1,1s0.4,1,1,1
		s1-0.4,1-1S24.4,2.3,23.9,2.3z"/>
</g>
<g>
	<path class="st0" d="M3.3,29.3c-1.1,0-2-0.9-2-2s0.9-2,2-2s2,0.9,2,2S4.4,29.3,3.3,29.3z M3.3,26.3c-0.6,0-1,0.4-1,1s0.4,1,1,1
		s1-0.4,1-1S3.8,26.3,3.3,26.3z"/>
</g>
<g>
	<rect x="2.5" y="22.6" transform="matrix(0.6323 -0.7747 0.7747 0.6323 -15.3974 13.707)" class="st0" width="8.4" height="1"/>
</g>
<g>
	<rect x="-0.2" y="29.1" transform="matrix(0.6247 -0.7809 0.7809 0.6247 -22.5713 12.1851)" class="st0" width="3.2" height="1"/>
</g>
<g>
	<rect x="15.7" y="7.3" transform="matrix(0.6176 -0.7865 0.7865 0.6176 1.5478 18.8311)" class="st0" width="8.9" height="1"/>
</g>
<g>
	<rect x="24.2" y="0.8" transform="matrix(0.6476 -0.7619 0.7619 0.6476 7.9906 19.9268)" class="st0" width="2.6" height="1"/>
</g>
</svg>
